<svg width="127" height="86" viewBox="0 0 127 86" fill="none" xmlns="http://www.w3.org/2000/svg">
<rect x="1" y="1" width="119" height="78" fill="#002FA7" stroke="black" stroke-width="2"/>
<rect x="10" y="8" width="116" height="77" fill="white" stroke="black" stroke-width="2"/>
<path d="M24.48 18.4L36.096 45.664C36.192 45.92 36.256 46.208 36.288 46.528C36.352 46.816 36.384 47.088 36.384 47.344H36.48C36.48 47.088 36.496 46.816 36.528 46.528C36.592 46.208 36.672 45.92 36.768 45.664L48.384 18.4H53.424V52H48.72V31.408C48.72 30.448 48.784 29.392 48.912 28.24C49.072 27.056 49.248 25.984 49.44 25.024H49.344C49.152 25.952 48.88 26.976 48.528 28.096C48.176 29.216 47.808 30.224 47.424 31.12L38.784 52H34.08L25.44 31.12C25.056 30.224 24.688 29.216 24.336 28.096C23.984 26.976 23.712 25.952 23.52 25.024H23.424C23.616 25.984 23.776 27.056 23.904 28.24C24.064 29.392 24.144 30.448 24.144 31.408V52H19.44V18.4H24.48ZM60.6038 41.728C60.7638 43.648 61.6438 45.136 63.2438 46.192C64.8758 47.248 67.0518 47.792 69.7718 47.824C72.8118 47.824 75.1638 47.296 76.8278 46.24C78.5238 45.184 79.3718 43.632 79.3718 41.584C79.3718 40.592 79.0358 39.808 78.3638 39.232C77.7238 38.656 76.8598 38.192 75.7718 37.84C74.7158 37.456 73.4998 37.168 72.1238 36.976C70.7798 36.752 69.3878 36.528 67.9478 36.304C66.5398 36.048 65.1478 35.76 63.7718 35.44C62.4278 35.088 61.2118 34.608 60.1238 34C59.0678 33.392 58.2038 32.608 57.5318 31.648C56.8918 30.656 56.5718 29.424 56.5718 27.952C56.5718 26.256 56.9078 24.784 57.5798 23.536C58.2838 22.256 59.2438 21.2 60.4598 20.368C61.6758 19.536 63.0998 18.912 64.7318 18.496C66.3638 18.08 68.1078 17.888 69.9638 17.92C71.6918 17.952 73.2918 18.16 74.7638 18.544C76.2678 18.928 77.5798 19.504 78.6998 20.272C79.8518 21.008 80.7798 21.936 81.4838 23.056C82.1878 24.176 82.6038 25.488 82.7318 26.992L78.2198 27.616C78.0598 25.952 77.3398 24.656 76.0598 23.728C74.7798 22.8 72.7478 22.336 69.9638 22.336C67.2118 22.336 65.0678 22.832 63.5318 23.824C62.0278 24.784 61.2758 26.16 61.2758 27.952C61.2758 28.848 61.5958 29.552 62.2358 30.064C62.9078 30.544 63.7718 30.944 64.8278 31.264C65.9158 31.552 67.1318 31.792 68.4758 31.984C69.8518 32.176 71.2438 32.384 72.6518 32.608C74.0918 32.832 75.4838 33.12 76.8278 33.472C78.2038 33.824 79.4198 34.336 80.4758 35.008C81.5638 35.648 82.4278 36.48 83.0677 37.504C83.7398 38.528 84.0758 39.84 84.0758 41.44C84.0758 42.592 83.8678 43.808 83.4518 45.088C83.0678 46.336 82.3318 47.504 81.2438 48.592C80.1878 49.648 78.7318 50.528 76.8758 51.232C75.0518 51.904 72.6998 52.24 69.8198 52.24C67.1638 52.24 64.9718 51.952 63.2438 51.376C61.5158 50.8 60.1238 50.048 59.0678 49.12C58.0438 48.16 57.3078 47.088 56.8598 45.904C56.4118 44.72 56.1398 43.52 56.0438 42.304L60.6038 41.728Z" fill="black"/>
<path d="M112.5 79.1211L109.5 74.5L107 70.5391L112.5 62L115.457 66.2695L118.414 70.5391L112.5 79.1211ZM89.1816 72.6133V55.8086H93.2422V72.6133H89.1816ZM89.252 72.6133V68.4824H112.508V70.5391V72.6133H89.252Z" fill="black"/>
</svg>
