<svg width="89" height="87" viewBox="0 0 89 87" fill="none" xmlns="http://www.w3.org/2000/svg">
<rect x="1" y="1" width="78" height="78" fill="#002FA7" stroke="black" stroke-width="2"/>
<rect x="10" y="8" width="78" height="78" fill="white" stroke="black" stroke-width="2"/>
<path d="M22.48 16.4L34.096 43.664C34.192 43.92 34.256 44.208 34.288 44.528C34.352 44.816 34.384 45.088 34.384 45.344H34.48C34.48 45.088 34.496 44.816 34.528 44.528C34.592 44.208 34.672 43.92 34.768 43.664L46.384 16.4H51.424V50H46.72V29.408C46.72 28.448 46.784 27.392 46.912 26.24C47.072 25.056 47.248 23.984 47.44 23.024H47.344C47.152 23.952 46.88 24.976 46.528 26.096C46.176 27.216 45.808 28.224 45.424 29.12L36.784 50H32.08L23.44 29.12C23.056 28.224 22.688 27.216 22.336 26.096C21.984 24.976 21.712 23.952 21.52 23.024H21.424C21.616 23.984 21.776 25.056 21.904 26.24C22.064 27.392 22.144 28.448 22.144 29.408V50H17.44V16.4H22.48ZM58.6038 39.728C58.7638 41.648 59.6438 43.136 61.2438 44.192C62.8758 45.248 65.0518 45.792 67.7718 45.824C70.8118 45.824 73.1638 45.296 74.8278 44.24C76.5238 43.184 77.3718 41.632 77.3718 39.584C77.3718 38.592 77.0358 37.808 76.3638 37.232C75.7238 36.656 74.8598 36.192 73.7718 35.84C72.7158 35.456 71.4998 35.168 70.1238 34.976C68.7798 34.752 67.3878 34.528 65.9478 34.304C64.5398 34.048 63.1478 33.76 61.7718 33.44C60.4278 33.088 59.2118 32.608 58.1238 32C57.0678 31.392 56.2038 30.608 55.5318 29.648C54.8918 28.656 54.5718 27.424 54.5718 25.952C54.5718 24.256 54.9078 22.784 55.5798 21.536C56.2838 20.256 57.2438 19.2 58.4598 18.368C59.6758 17.536 61.0998 16.912 62.7318 16.496C64.3638 16.08 66.1078 15.888 67.9638 15.92C69.6918 15.952 71.2918 16.16 72.7638 16.544C74.2678 16.928 75.5798 17.504 76.6998 18.272C77.8518 19.008 78.7798 19.936 79.4838 21.056C80.1878 22.176 80.6038 23.488 80.7318 24.992L76.2198 25.616C76.0598 23.952 75.3398 22.656 74.0598 21.728C72.7798 20.8 70.7478 20.336 67.9638 20.336C65.2118 20.336 63.0678 20.832 61.5318 21.824C60.0278 22.784 59.2758 24.16 59.2758 25.952C59.2758 26.848 59.5958 27.552 60.2358 28.064C60.9078 28.544 61.7718 28.944 62.8278 29.264C63.9158 29.552 65.1318 29.792 66.4758 29.984C67.8518 30.176 69.2438 30.384 70.6518 30.608C72.0918 30.832 73.4838 31.12 74.8278 31.472C76.2038 31.824 77.4198 32.336 78.4758 33.008C79.5638 33.648 80.4278 34.48 81.0677 35.504C81.7398 36.528 82.0758 37.84 82.0758 39.44C82.0758 40.592 81.8678 41.808 81.4518 43.088C81.0678 44.336 80.3318 45.504 79.2438 46.592C78.1878 47.648 76.7318 48.528 74.8758 49.232C73.0518 49.904 70.6998 50.24 67.8198 50.24C65.1638 50.24 62.9718 49.952 61.2438 49.376C59.5158 48.8 58.1238 48.048 57.0678 47.12C56.0438 46.16 55.3078 45.088 54.8598 43.904C54.4118 42.72 54.1398 41.52 54.0438 40.304L58.6038 39.728Z" fill="black"/>
</svg>
