<svg width="148" height="72" viewBox="0 0 148 72" fill="none" xmlns="http://www.w3.org/2000/svg">
<path d="M0 70.7369V1.26316H14.6237L32.3588 61.0526H32.9811L50.8199 1.26316H65.0287V70.7369H56.213L56.7316 10.5263H56.0056L37.5445 70.7369H27.3805L9.23055 10.5263H8.40084L9.02312 70.7369H0Z" fill="black"/>
<path d="M94.3215 72C89.9655 72 86.2318 71.4035 83.1204 70.2105C80.0781 69.0175 77.6235 67.3684 75.7566 65.2632C73.9589 63.0877 72.7144 60.5965 72.0229 57.7895C71.3315 54.9825 71.1587 51.9298 71.5044 48.6316L80.1126 47.3684C79.7669 50.8772 80.0781 53.8947 81.0461 56.4211C82.0832 58.8772 83.7426 60.7719 86.0243 62.1053C88.3061 63.4386 91.1409 64.1053 94.5289 64.1053C97.2946 64.1053 99.68 63.7193 101.685 62.9474C103.759 62.1053 105.35 60.8772 106.456 59.2632C107.631 57.6491 108.219 55.614 108.219 53.1579C108.219 50.5614 107.562 48.4561 106.249 46.8421C104.935 45.1579 103.137 43.7544 100.855 42.6316C98.5738 41.5088 95.9463 40.4211 92.9732 39.3684C90.3458 38.4561 87.7529 37.4737 85.1946 36.4211C82.7055 35.2982 80.4584 34 78.4532 32.5263C76.4481 31.0526 74.8232 29.2281 73.5787 27.0526C72.4032 24.807 71.8155 22.0702 71.8155 18.8421C71.8155 15.0526 72.6798 11.7544 74.4084 8.94737C76.1369 6.14035 78.6261 3.96491 81.8758 2.42105C85.1255 0.807018 89.0321 0 93.5955 0C98.3663 0 102.411 0.877194 105.73 2.63158C109.118 4.31579 111.676 6.77193 113.405 10C115.133 13.2281 115.894 17.0877 115.687 21.579L106.871 23.0526C107.009 20.6667 106.802 18.5263 106.249 16.6316C105.695 14.7368 104.831 13.1579 103.656 11.8947C102.48 10.5614 101.028 9.57895 99.2997 8.94737C97.5712 8.24562 95.6006 7.89474 93.388 7.89474C90.8989 7.89474 88.7209 8.35088 86.8541 9.26316C84.9872 10.1053 83.5352 11.2982 82.4981 12.8421C81.5301 14.386 81.0461 16.2105 81.0461 18.3158C81.0461 20.9123 81.8066 23.0526 83.3278 24.7368C84.8489 26.3509 86.8195 27.6842 89.2395 28.7368C91.6595 29.7193 94.2178 30.6667 96.9143 31.579C99.3343 32.3509 101.754 33.2982 104.174 34.4211C106.594 35.5439 108.807 36.9123 110.812 38.5263C112.817 40.0702 114.407 42.0351 115.583 44.4211C116.827 46.807 117.45 49.7193 117.45 53.1579C117.45 56.7368 116.62 59.9649 114.961 62.8421C113.37 65.7193 110.881 67.9649 107.493 69.579C104.105 71.193 99.7146 72 94.3215 72Z" fill="black"/>
<path d="M148 53.193C148 62.8822 140.261 70.7369 130.714 70.7369C121.168 70.7369 113.429 62.8822 113.429 53.193C113.429 43.5038 121.168 35.6491 130.714 35.6491C140.261 35.6491 148 43.5038 148 53.193Z" fill="#FF4500"/>
</svg>
